<svg width="18" height="18" viewBox="0 0 18 18" fill="none" xmlns="http://www.w3.org/2000/svg">
<path d="M13.8938 13.2819H5.22675C4.42108 13.2819 3.64797 12.9441 3.10271 12.3568C2.55746 11.7695 2.28078 10.9811 2.34588 10.1847L3.02134 2.1721C3.04576 1.92271 2.95623 1.68138 2.78533 1.49635C2.61443 1.31132 2.37843 1.21477 2.12615 1.21477H0.718266C0.384605 1.21477 0.10791 0.941251 0.10791 0.611415C0.10791 0.281579 0.384605 0.00805664 0.718266 0.00805664H2.1343C2.72838 0.00805664 3.28989 0.257445 3.68866 0.683818C3.90838 0.925161 4.07115 1.20673 4.16067 1.52047H14.3251C15.1471 1.52047 15.9039 1.84227 16.4573 2.42149C17.0026 3.00876 17.2793 3.77301 17.2141 4.58553L16.7747 10.6191C16.6852 12.0913 15.3831 13.2819 13.8938 13.2819ZM4.20136 2.71915L3.56659 10.2812C3.5259 10.7478 3.68053 11.1903 3.99791 11.5362C4.3153 11.8821 4.75474 12.0672 5.22675 12.0672H13.8938C14.7402 12.0672 15.5052 11.3592 15.5703 10.5226L16.0097 4.48901C16.0423 4.01436 15.8876 3.56386 15.5703 3.23402C15.2529 2.89614 14.8134 2.71109 14.3333 2.71109H4.20136V2.71915Z" fill="#182544"/>
<path d="M12.3151 17.3043C11.4199 17.3043 10.6875 16.5803 10.6875 15.6954C10.6875 14.8105 11.4199 14.0864 12.3151 14.0864C13.2103 14.0864 13.9427 14.8105 13.9427 15.6954C13.9427 16.5803 13.2103 17.3043 12.3151 17.3043ZM12.3151 15.2931C12.0872 15.2931 11.9082 15.4701 11.9082 15.6954C11.9082 15.9206 12.0872 16.0976 12.3151 16.0976C12.543 16.0976 12.722 15.9206 12.722 15.6954C12.722 15.4701 12.543 15.2931 12.3151 15.2931Z" fill="#182544"/>
<path d="M5.80437 17.3043C4.90918 17.3043 4.17676 16.5803 4.17676 15.6954C4.17676 14.8105 4.90918 14.0864 5.80437 14.0864C6.69956 14.0864 7.43199 14.8105 7.43199 15.6954C7.43199 16.5803 6.69956 17.3043 5.80437 17.3043ZM5.80437 15.2931C5.57651 15.2931 5.39747 15.4701 5.39747 15.6954C5.39747 15.9206 5.57651 16.0976 5.80437 16.0976C6.03224 16.0976 6.21128 15.9206 6.21128 15.6954C6.21128 15.4701 6.03224 15.2931 5.80437 15.2931Z" fill="#182544"/>
<path d="M16.1807 6.04168H6.41504C6.08138 6.04168 5.80469 5.76816 5.80469 5.43832C5.80469 5.10848 6.08138 4.83496 6.41504 4.83496H16.1807C16.5144 4.83496 16.7911 5.10848 16.7911 5.43832C16.7911 5.76816 16.5144 6.04168 16.1807 6.04168Z" fill="#182544"/>
</svg>
