<?xml version="1.0" standalone="no"?>
<!DOCTYPE svg PUBLIC "-//W3C//DTD SVG 20010904//EN"
 "http://www.w3.org/TR/2001/REC-SVG-20010904/DTD/svg10.dtd">
<svg version="1.0" xmlns="http://www.w3.org/2000/svg"
 width="1280.000000pt" height="776.000000pt" viewBox="0 0 1280.000000 776.000000"
 preserveAspectRatio="xMidYMid meet">
<metadata>
Created by potrace 1.15, written by Peter Selinger 2001-2017
</metadata>
<g transform="translate(0.000000,776.000000) scale(0.100000,-0.100000)"
fill="#000000" stroke="none">
<path d="M2680 7754 c-14 -2 -65 -11 -115 -20 -49 -9 -155 -37 -235 -64 -226
-76 -292 -86 -468 -71 -299 24 -336 30 -432 62 l-95 31 -304 9 c-304 8 -305 8
-402 -16 -53 -14 -148 -43 -210 -66 -184 -66 -189 -67 -298 -83 -58 -9 -108
-16 -113 -16 -4 0 -8 -1692 -8 -3760 l0 -3760 6400 0 6400 0 0 3039 0 3039
-62 7 c-35 4 -85 13 -113 21 -27 8 -95 23 -150 34 -136 25 -179 41 -330 119
-71 38 -170 83 -220 101 -49 18 -139 54 -200 80 -131 57 -228 86 -313 95 -35
3 -105 19 -155 35 -211 67 -317 103 -407 140 -52 22 -147 51 -210 65 -119 26
-238 75 -328 136 -26 18 -116 84 -200 147 -85 63 -179 129 -209 148 -63 38
-242 84 -326 84 -85 0 -255 -27 -340 -54 -134 -43 -247 -65 -382 -76 -75 -5
-157 -18 -195 -30 -124 -39 -210 -60 -245 -60 -19 0 -77 -6 -128 -14 -50 -8
-128 -18 -172 -21 -87 -8 -273 -66 -417 -131 l-81 -36 -141 6 c-78 3 -168 10
-201 16 -33 6 -127 13 -210 16 -148 6 -152 5 -290 -30 -139 -36 -268 -77 -475
-152 l-105 -38 -168 2 c-154 2 -177 0 -290 -27 -225 -54 -231 -55 -592 -54
-337 1 -341 1 -429 27 -48 15 -149 55 -225 91 -145 68 -197 85 -348 111 -111
19 -195 44 -275 85 -96 49 -249 181 -406 352 -228 248 -384 381 -522 445 -61
29 -88 35 -155 37 -44 2 -91 2 -105 -1z"/>
</g>
</svg>
