<svg width="1617" height="440" viewBox="0 0 1617 440" fill="none" xmlns="http://www.w3.org/2000/svg">
<path d="M297.13 204.082C241.711 206.081 220.998 166.595 165.579 132.107C110.159 97.6182 133.111 138.605 83.2894 66.6293C33.4679 -5.34603 1 1.152 1 1.152V439H1616V46.1364C1616 46.1364 1544.91 66.6293 1486.13 110.614C1427.35 154.599 1391.52 196.084 1391.52 196.084L1249.9 291.051C1249.9 291.051 1217.43 319.042 1159.77 363.526C1102.11 408.01 977.277 382.019 957.685 356.029C938.092 330.038 824.454 170.094 676.109 276.556C527.764 383.019 524.965 276.556 432.04 276.556C339.114 276.556 352.549 202.083 297.13 204.082Z" fill="black" stroke="black"/>
</svg>
